
<svg version="1.0" xmlns="http://www.w3.org/2000/svg"
 width="24" height="25" viewBox="0 0 24 25"
 >

<g transform="translate(0.000000,512.000000) scale(0.100000,-0.100000)"
fill="#000000" stroke="none">
<path d="M3761 4129 c-276 -271 -281 -276 -281 -311 0 -39 40 -78 80 -78 27 0
63 32 275 236 134 130 246 243 249 251 22 56 -15 113 -74 113 -29 0 -55 -22
-249 -211z"/>
<path d="M2515 4169 c-32 -11 -72 -30 -88 -41 -16 -11 -311 -275 -657 -587
l-627 -566 -214 -89 c-118 -49 -245 -105 -282 -124 -79 -41 -143 -107 -184
-190 -25 -52 -28 -67 -28 -162 l0 -105 104 -253 c57 -139 118 -276 135 -305
39 -64 117 -128 193 -158 71 -28 214 -32 278 -7 l40 16 150 -362 c134 -326
153 -365 192 -403 48 -47 105 -68 168 -60 59 6 343 126 383 161 47 41 75 101
76 161 0 43 -20 99 -133 373 -74 177 -132 324 -130 326 4 4 303 20 1129 61
168 9 327 20 354 25 104 22 197 96 247 198 21 40 24 62 23 152 l0 105 -348
830 c-191 457 -356 844 -367 862 -80 129 -268 194 -414 142z m209 -167 c16 -9
41 -33 56 -52 29 -37 686 -1613 703 -1687 21 -89 -44 -199 -130 -222 -50 -13
-1674 -94 -1684 -84 -4 4 -86 197 -182 428 -96 231 -182 437 -191 457 l-16 37
611 553 c336 304 619 557 628 562 65 38 147 41 205 8z m-1399 -1639 c99 -241
180 -442 180 -447 0 -12 -414 -182 -465 -191 -62 -11 -143 18 -193 68 -36 36
-57 79 -151 305 -97 234 -109 269 -109 321 1 37 8 71 21 97 40 77 75 99 308
193 120 49 221 90 224 90 3 0 86 -196 185 -436z m528 -903 c75 -181 137 -343
137 -359 0 -15 -6 -33 -12 -38 -24 -18 -283 -123 -303 -123 -26 0 -39 10 -54
37 -22 43 -281 666 -281 677 1 18 290 134 335 135 l40 0 138 -329z"/>
<path d="M4182 3561 c-178 -70 -330 -135 -340 -144 -24 -24 -21 -83 6 -110 42
-41 82 -31 402 102 302 125 340 147 340 196 0 28 -36 71 -65 79 -12 3 -144
-44 -343 -123z"/>
<path d="M3921 2871 c-22 -22 -28 -70 -11 -101 5 -10 25 -23 42 -28 18 -6 180
-16 361 -23 l328 -12 24 23 c30 29 33 78 6 111 -17 21 -29 23 -152 30 -74 4
-233 11 -355 15 -217 7 -222 6 -243 -15z"/>
</g>
</svg>
