<svg version="1.0" xmlns="http://www.w3.org/2000/svg"
 width="200" height="120" viewBox="0 0 200 120"
 >

<g transform="translate(0.000000,166.000000) scale(0.100000,-0.100000)"
fill="#aaffe6" stroke="none">
<path d="M1425 1088 c-3 -7 -15 -64 -28 -125 l-24 -113 23 0 c23 0 25 5 39 65
9 41 32 75 51 75 13 0 15 -7 10 -32 -21 -104 -21 -110 5 -106 20 3 25 12 36
68 20 95 -6 133 -67 100 -17 -9 -18 -7 -9 22 5 18 9 39 9 45 0 17 -39 17 -45
1z"/>
<path d="M631 973 c-25 -130 -25 -123 -1 -123 16 0 22 14 37 83 l18 82 5 -80
c5 -73 7 -80 27 -83 19 -3 29 9 62 75 22 43 40 71 40 63 1 -15 -15 -88 -25
-122 -4 -14 0 -18 19 -18 22 0 25 7 45 103 12 57 22 109 22 115 0 7 -15 12
-33 12 -31 0 -35 -4 -74 -82 l-41 -83 -7 83 -8 82 -32 0 -32 0 -22 -107z"/>
<path d="M1123 1035 c-37 -38 -39 -45 -19 -45 12 0 12 -7 5 -35 -6 -20 -9 -50
-7 -68 2 -27 8 -33 31 -35 16 -2 35 -1 43 2 17 6 7 36 -12 36 -15 0 -17 20 -8
69 5 24 12 31 30 31 17 0 24 6 24 20 0 13 -7 20 -19 20 -11 0 -18 6 -17 16 2
29 -18 24 -51 -11z"/>
<path d="M947 1019 c-40 -23 -64 -128 -35 -157 15 -15 65 -16 74 -1 5 8 9 7
14 -1 18 -29 37 1 53 81 9 45 14 85 12 88 -3 3 -14 0 -24 -6 -11 -7 -23 -8
-32 -2 -18 11 -40 11 -62 -2z m61 -52 c6 -30 -18 -77 -39 -77 -15 0 -19 7 -19
31 0 17 5 39 11 50 12 24 42 21 47 -4z"/>
<path d="M1267 1009 c-35 -27 -52 -90 -35 -127 12 -23 19 -27 58 -27 34 0 46
4 48 17 2 12 -5 17 -30 20 -30 3 -33 6 -31 36 1 42 19 62 53 62 26 0 46 21 33
34 -14 13 -72 5 -96 -15z"/>
<path d="M716 758 c-12 -35 -37 -180 -32 -185 8 -8 26 43 33 94 9 67 20 60 28
-17 4 -39 11 -72 15 -75 5 -3 29 32 54 77 50 91 53 91 31 3 -18 -76 -19 -93
-3 -77 16 16 49 175 38 186 -14 14 -27 -1 -66 -75 -39 -74 -53 -76 -55 -9 -1
48 -12 83 -27 88 -6 2 -14 -2 -16 -10z"/>
<path d="M1072 726 c-14 -15 -18 -26 -11 -28 9 -3 9 -17 1 -53 -12 -57 1 -84
35 -70 17 8 17 8 1 12 -19 5 -21 17 -12 76 5 27 11 37 25 37 11 0 19 5 19 10
0 6 -6 10 -14 10 -8 0 -16 7 -18 15 -2 11 -8 9 -26 -9z"/>
<path d="M931 701 c-41 -41 -35 -112 10 -126 29 -9 71 23 83 63 18 64 -48 108
-93 63z m67 -42 c2 -24 -3 -42 -14 -53 -25 -26 -49 -16 -52 21 -4 44 14 75 41
71 17 -2 23 -11 25 -39z"/>
<path d="M1165 695 c-44 -43 -25 -125 29 -125 30 0 66 46 66 84 0 64 -51 86
-95 41z m73 -31 c4 -42 -29 -84 -55 -68 -24 15 -28 50 -8 80 23 36 59 29 63
-12z"/>
<path d="M1300 655 c-13 -71 -13 -75 -3 -76 4 0 13 20 19 46 14 54 30 75 55
75 11 0 19 5 19 10 0 14 -33 13 -48 -2 -9 -9 -12 -9 -12 0 0 7 -4 12 -9 12 -5
0 -14 -29 -21 -65z"/>
<path d="M1412 708 c-20 -20 -14 -45 15 -66 36 -26 26 -57 -17 -48 -33 6 -41
-9 -10 -19 27 -9 58 2 70 26 9 16 5 24 -21 48 -36 33 -32 51 12 51 18 0 28 4
24 10 -9 14 -58 13 -73 -2z"/>
</g>
</svg>
